#!OML:ASF F:\VICON\USERDATA\INSTALL\rory3\rory3.ASF
:FULLY-SPECIFIED
:DEGREES
72
root 0.764374 17.961 -0.596948 2.05952 -30.0527 1.60044
lowerback -0.0754899 -0.831256 -4.49363
upperback 0.573603 -1.10186 1.81273
thorax 0.75349 -0.584422 4.38259
lowerneck -14.03 1.05527 -10.9772
upperneck 26.3791 2.99878 4.35877
head 10.5518 0.74668 3.81008
rclavicle 9.22858e-014 2.38542e-015
rhumerus -39.1639 -16.8776 -69.2631
rradius 37.1319
rwrist 15.0194
rhand -25.9514 11.2377
rfingers 7.12502
rthumb 0.592727 -18.7412
lclavicle 9.22858e-014 2.38542e-015
lhumerus -1.26852 -27.867 78.0241
lradius 118.656
lwrist 1.081
lhand -24.2495 40.4659
lfingers 7.12502
lthumb 2.23639 70.434
rfemur -10.2545 2.92171 10.3847
rtibia 23.6416
rfoot -15.2686 -10.7824
rtoes 1.40997
lfemur -2.00757 1.46518 -23.8207
ltibia 14.4378
lfoot -10.4495 5.98896
ltoes -12.0463
73
root 0.767077 17.9594 -0.593216 1.98517 -30.189 1.62667
lowerback -0.0204356 -0.854083 -4.50827
upperback 0.589137 -1.13478 1.84983
thorax 0.743283 -0.601268 4.42979
lowerneck -14.0808 1.11591 -11.0002
upperneck 26.3705 3.09249 4.37541
head 10.5492 0.789841 3.83186
rclavicle -9.95414e-014 3.97569e-015
rhumerus -39.2599 -17.1131 -68.9479
rradius 36.9442
rwrist 14.9463
rhand -25.9548 10.9334
rfingers 7.12502
rthumb 0.589433 -19.0455
lclavicle -9.95414e-014 3.97569e-015
lhumerus -1.21824 -27.7394 77.9584
lradius 118.715
lwrist 0.895193
lhand -24.5094 40.5167
lfingers 7.12502
lthumb 1.9854 70.4873
rfemur -10.225 3.01356 10.3443
rtibia 23.647
rfoot -15.2093 -10.7421
rtoes 0.905466
lfemur -1.92048 1.44322 -23.8657
ltibia 14.4276
lfoot -10.535 6.11248
ltoes -11.8954
74
root 0.770284 17.9561 -0.589365 1.88473 -30.2708 1.69215
lowerback 0.154735 -0.898733 -4.58779
upperback 0.50438 -1.20272 1.90359
thorax 0.568133 -0.629487 4.53384
lowerneck -13.9439 1.17316 -11.0976
upperneck 26.3438 3.17289 4.39689
head 10.5034 0.819949 3.86134
rclavicle 6.22196e-014 3.57812e-015
rhumerus -39.5416 -17.1107 -68.6127
rradius 36.8385
rwrist 14.6378
rhand -25.8645 10.7877
rfingers 7.12502
rthumb 0.676575 -19.191
lclavicle 6.22196e-014 3.57812e-015
lhumerus -1.37683 -27.6549 78.0243
lradius 118.81
lwrist 0.691226
lhand -24.7023 40.8219
lfingers 7.12502
lthumb 1.79912 70.7941
rfemur -10.1825 3.05489 10.266
rtibia 23.6743
rfoot -15.1776 -10.6923
rtoes 0.477796
lfemur -1.82096 1.44534 -23.9451
ltibia 14.3929
lfoot -10.5276 6.19966
ltoes -11.6853
75
root 0.774578 17.9558 -0.584935 1.84382 -30.3267 1.6975
lowerback 0.401635 -0.973645 -4.63688
upperback 0.329636 -1.31519 1.97525
thorax 0.265192 -0.674213 4.64198
lowerneck -13.6672 1.27713 -11.1397
upperneck 26.289 3.28816 4.40686
head 10.4176 0.870756 3.87698
rclavicle 9.66342e-014 -5.56597e-015
rhumerus -39.9327 -17.1476 -68.1772
rradius 36.6686
rwrist 14.4889
rhand -25.8207 11.094
rfingers 7.12502
rthumb 0.718961 -18.8845
lclavicle 9.66342e-014 -5.56597e-015
lhumerus -1.67064 -27.4808 78.1121
lradius 118.845
lwrist 0.602074
lhand -24.6659 40.9821
lfingers 7.12502
lthumb 1.83422 70.954
rfemur -10.1646 3.0736 10.242
rtibia 23.7015
rfoot -15.1908 -10.6303
rtoes 0.550783
lfemur -1.74974 1.48789 -23.9669
ltibia 14.3567
lfoot -10.4903 6.21229
ltoes -11.8261
76
root 0.778795 17.954 -0.583093 1.8171 -30.3282 1.7013
lowerback 0.479747 -1.01552 -4.54574
upperback 0.288107 -1.37432 1.93268
thorax 0.182114 -0.700321 4.54789
lowerneck -13.5358 1.33152 -11.103
upperneck 26.2067 3.30551 4.52332
head 10.3558 0.89947 3.90887
rclavicle 6.15487e-014 6.36111e-015
rhumerus -40.1707 -17.2056 -68.0607
rradius 36.654
rwrist 13.9165
rhand -26.119 10.8458
rfingers 7.12502
rthumb 0.4308 -19.1335
lclavicle 6.15487e-014 6.36111e-015
lhumerus -1.59816 -27.4182 77.9459
lradius 118.804
lwrist 0.472682
lhand -24.6419 41.004
lfingers 7.12502
lthumb 1.85747 70.9757
rfemur -10.142 3.09634 10.229
rtibia 23.7117
rfoot -15.139 -10.6741
rtoes 0.327058
lfemur -1.72146 1.49779 -23.9778
ltibia 14.3479
lfoot -10.4819 6.20426
ltoes -11.8997
77
root 0.782084 17.9528 -0.581864 1.82193 -30.3357 1.64615
lowerback 0.394663 -1.00473 -4.31491
upperback 0.385031 -1.35459 1.83388
thorax 0.319416 -0.695188 4.31164
lowerneck -13.5594 1.33251 -10.9872
upperneck 26.0717 3.25438 4.62429
head 10.3129 0.905828 3.9159
rclavicle -7.45443e-017 -3.18055e-015
rhumerus -40.2663 -17.2718 -68.2119
rradius 36.8499
rwrist 12.8374
rhand -26.4943 9.98675
rfingers 7.12502
rthumb 0.0682982 -19.993
lclavicle -7.45443e-017 -3.18055e-015
lhumerus -1.26464 -27.4905 77.6485
lradius 118.768
lwrist 0.205322
lhand -24.6537 41.0697
lfingers 7.12502
lthumb 1.846 71.0415
rfemur -10.1146 3.15159 10.278
rtibia 23.7175
rfoot -15.0997 -10.7345
rtoes -0.115187
lfemur -1.69568 1.43808 -23.9359
ltibia 14.34
lfoot -10.4727 6.23666
ltoes -11.5233
78
root 0.784713 17.9522 -0.578448 1.79673 -30.3843 1.63296
lowerback 0.3147 -0.994991 -4.1684
upperback 0.461325 -1.33737 1.76977
thorax 0.435863 -0.690281 4.15982
lowerneck -13.5827 1.3346 -10.9079
upperneck 25.9791 3.23375 4.65092
head 10.2851 0.911537 3.90718
rclavicle 4.52235e-015 1.31198e-014
rhumerus -40.3827 -17.4383 -68.1682
rradius 36.9425
rwrist 12.2788
rhand -26.6787 9.53188
rfingers 7.12502
rthumb -0.10973 -20.4478
lclavicle 4.52235e-015 1.31198e-014
lhumerus -1.0072 -27.5232 77.4434
lradius 118.774
lwrist -0.015541
lhand -24.6373 41.1252
lfingers 7.12502
lthumb 1.86189 71.0968
rfemur -10.088 3.16326 10.273
rtibia 23.729
rfoot -15.1156 -10.6745
rtoes -0.0397338
lfemur -1.6366 1.43092 -23.9484
ltibia 14.3337
lfoot -10.4948 6.30146
ltoes -11.784
79
root 0.786764 17.952 -0.576489 1.75252 -30.4505 1.72122
lowerback 0.235426 -0.993583 -4.16664
upperback 0.512504 -1.33169 1.71021
thorax 0.530894 -0.690524 4.09498
lowerneck -13.6337 1.32039 -10.8636
upperneck 25.9094 3.20502 4.66736
head 10.272 0.90786 3.90114
rclavicle 1.37907e-014 1.15295e-014
rhumerus -40.4842 -17.7424 -67.9611
rradius 36.8896
rwrist 12.2534
rhand -26.6691 9.65392
rfingers 7.12502
rthumb -0.100511 -20.3258
lclavicle 1.37907e-014 1.15295e-014
lhumerus -0.738675 -27.4846 77.2499
lradius 118.709
lwrist -0.218686
lhand -24.704 40.9977
lfingers 7.12502
lthumb 1.79745 70.9699
rfemur -10.1016 3.14838 10.1628
rtibia 23.7385
rfoot -15.111 -10.5633
rtoes 0.0393436
lfemur -1.63043 1.4662 -24.0541
ltibia 14.3501
lfoot -10.502 6.3588
ltoes -11.8447
80
root 0.788604 17.9516 -0.577613 1.75836 -30.485 1.7335
lowerback 0.135599 -1.00547 -4.13805
upperback 0.589555 -1.34307 1.69799
thorax 0.666336 -0.700842 4.06326
lowerneck -13.7411 1.29228 -10.8842
upperneck 25.8121 3.16909 4.72753
head 10.2583 0.901311 3.92129
rclavicle -3.3371e-014 7.95139e-016
rhumerus -40.49 -17.9166 -67.8083
rradius 36.8599
rwrist 12.2161
rhand -26.7449 9.67423
rfingers 7.12502
rthumb -0.173738 -20.3054
lclavicle -3.3371e-014 7.95139e-016
lhumerus -0.436773 -27.3527 77.0859
lradius 118.601
lwrist -0.519412
lhand -24.6881 40.8532
lfingers 7.12502
lthumb 1.81285 70.8252
rfemur -10.1407 3.2014 10.1486
rtibia 23.7479
rfoot -15.1513 -10.5825
rtoes 0.187661
lfemur -1.66445 1.5069 -24.0688
ltibia 14.3749
lfoot -10.4513 6.38725
ltoes -11.8159
81
root 0.790805 17.95 -0.578311 1.76988 -30.5379 1.71965
lowerback 0.0692637 -1.00395 -4.08962
upperback 0.64005 -1.3383 1.70319
thorax 0.753976 -0.701304 4.03947
lowerneck -13.81 1.28167 -10.847
upperneck 25.7317 3.16682 4.68044
head 10.2446 0.902068 3.89669
rclavicle -3.42158e-014 -1.19271e-015
rhumerus -40.6011 -17.8967 -67.7134
rradius 36.9881
rwrist 12.031
rhand -26.7656 9.69316
rfingers 7.12502
rthumb -0.193687 -20.2865
lclavicle -3.42158e-014 -1.19271e-015
lhumerus -0.249209 -27.2639 77.0216
lradius 118.533
lwrist -0.815024
lhand -24.6337 40.8764
lfingers 7.12502
lthumb 1.86534 70.8479
rfemur -10.1931 3.26991 10.1621
rtibia 23.7811
rfoot -15.2003 -10.6257
rtoes 0.560548
lfemur -1.68305 1.60089 -24.0547
ltibia 14.3818
lfoot -10.4154 6.36041
ltoes -11.8342
